<?xml version="1.0" encoding="UTF-8" standalone="no"?>
<svg xmlns="http://www.w3.org/2000/svg" xmlns:xlink="http://www.w3.org/1999/xlink" viewBox="0 0 136 136">
  <defs>
    <style>.d{fill:none;}.e{fill:#f9c606;}.f{fill:#00132b;}.g{fill:#013d5b;}.h{fill:#007f9b;}.i{fill:#ffe7a7;}.j{fill:#6b462d;}.k{fill:#00a3c4;}.l{fill:#8ab0c7;}.m{fill:#895c3e;}.n{fill:#59a545;}.o{fill:#255f82;}.p{fill:#4bc7e7;}.q{clip-path:url(#b);}</style>
    <clipPath id="b">
      <rect class="d" height="136" width="136"/>
    </clipPath>
  </defs>
  <g id="a">
    <g class="q">
      <g>
        <g>
          <path class="h" d="M87.44,58.63h17.62c.42,0,.75,.34,.75,.75h0c0,10.14-8.23,18.37-18.37,18.37h0c-.42,0-.75-.34-.75-.75v-17.62c0-.42,.34-.75,.75-.75Z" transform="translate(192.49 136.39) rotate(180)"/>
          <path class="h" d="M93.89,130.9h8.36c1.15,0,2.11-.91,2.24-2.11l1.22-11.89c.14-1.4-.9-2.62-2.24-2.62h-10.81c-1.34,0-2.38,1.22-2.24,2.62l1.22,11.89c.12,1.2,1.09,2.11,2.24,2.11Z"/>
          <path class="k" d="M87.65,130.9h8.36c1.15,0,2.11-.87,2.24-2.01l1.22-11.33c.14-1.33-.9-2.49-2.24-2.49h-10.81c-1.34,0-2.38,1.16-2.24,2.49l1.22,11.33c.12,1.14,1.09,2.01,2.24,2.01Z"/>
          <rect class="k" height="55.93" rx="27.97" ry="27.97" transform="translate(148 186.52) rotate(180)" width="86.46" x="30.77" y="65.29"/>
          <path class="f" d="M62.65,69.26h22.7c.66,0,1.2,.54,1.2,1.2s-.54,1.2-1.2,1.2h-22.7c-.66,0-1.2-.54-1.2-1.2s.54-1.2,1.2-1.2Z"/>
          <rect class="k" height="25.35" transform="translate(225.1 191.17) rotate(180)" width="16" x="104.55" y="82.91"/>
          <rect class="h" height="12.67" rx="6.34" ry="6.34" transform="translate(216.13 -24.96) rotate(90)" width="25.35" x="107.87" y="89.25"/>
          <path class="k" d="M79.78,56.99h17.62c.42,0,.75,.34,.75,.75h0c0,10.14-8.23,18.37-18.37,18.37h0c-.42,0-.75-.34-.75-.75v-17.62c0-.42,.34-.75,.75-.75Z" transform="translate(177.17 133.1) rotate(180)"/>
          <path class="f" d="M101.33,90.31c.99,0,1.8-.8,1.8-1.8v-5.16c0-.99-.8-1.8-1.8-1.8s-1.8,.8-1.8,1.8v5.16c0,.99,.8,1.8,1.8,1.8Z"/>
          <path class="f" d="M118.66,96.23c.66,0,1.2-.54,1.2-1.2v-2.98c0-.66-.54-1.2-1.2-1.2s-1.2,.54-1.2,1.2v2.98c0,.66,.54,1.2,1.2,1.2Z"/>
          <path class="f" d="M123.9,96.23c.66,0,1.2-.54,1.2-1.2v-2.98c0-.66-.54-1.2-1.2-1.2s-1.2,.54-1.2,1.2v2.98c0,.66,.54,1.2,1.2,1.2Z"/>
        </g>
        <g>
          <path class="j" d="M52.83,16.43l6.66-1.17c.14-.02,.29,0,.41,.07l15.64,8.35c.41,.22,.58,.73,.38,1.15-.56,1.14-1.08,2.64-4.98,2.24-.67-.07-1.33-.26-1.93-.57l-5-2.57"/>
          <path class="j" d="M49.03,17.51l20.24-5.6c.37-.1,.76,.12,.86,.49,.27,.99,.08,1.87-1.48,3.25-2.21,1.96-7.25,2.05-7.25,2.05l-12.37-.19Z"/>
          <path class="m" d="M65.05,26.63l1.52,2.09,.39,.53,4.58,6.3c-3.17,2.49-6.75,1.53-9.24-1.64l-4.19-6.22-2.86-.35-5.21,4.18c-2.32,1.86-2.73,5.24-.91,7.6h0c.89,1.16,2.22,1.91,3.67,2.09l2.63,.32c.77,.09,2.49,.26,3.09-.24l1.04-.87c3.17-2.49,9.3,.84,9.3,.84l-8.02,5.19c-.16,.13-.33,.24-.49,.35-.77,.83-1.91,1.3-3.12,1.16l-10.53-1.27c-.78-.09-1.53-.34-2.21-.74l-12.73-13.84-21.1-1.85,.64-17.77,26.23,2.32,20.39,1.76,7.12,10.06Z"/>
          <path class="g" d="M22.67,32.97l1.34,.1c.6,.04,1.12-.4,1.16-1l1.32-18.34c.04-.6-.4-1.12-1-1.16l-1.34-.1c-.6-.04-1.12,.4-1.16,1l-1.32,18.34c-.04,.6,.4,1.12,1,1.16Z"/>
          <path class="g" d="M19.91,14.7l9.58,.61c.49,.03,.91-.23,.96-.58l.19-1.59c.04-.35-.32-.66-.8-.69l-9.58-.61c-.49-.03-.91,.23-.96,.58l-.19,1.59c-.04,.35,.32,.66,.8,.69Z"/>
          <path class="n" d="M15.59,9.87l-7.49-.66c-.77-.07-1.45,.5-1.53,1.27l-1.68,19.23c-.08,.78,.5,1.48,1.28,1.54l7.49,.66c.77,.07,1.45-.5,1.53-1.27l1.68-19.23c.08-.78-.5-1.48-1.28-1.54Z"/>
          <path class="n" d="M9.71,11.2l-12.54-1.1c-.6-.05-1.12,.4-1.16,.99l-1.38,15.77c-.04,.59,.39,1.1,.98,1.15l13.24,1.2,.86-18.02Z"/>
          <circle class="e" cx="71.14" cy="47.9" r="12.76" transform="translate(-12.75 30.06) rotate(-21.95)"/>
          <path class="m" d="M55.44,41.53c.77,.09,2.49,.26,3.09-.24l1.04-.87c3.17-2.74,6.53-1.17,8.21-.02,.56,.38,.56,1.21-.01,1.58l-6.91,4.48c-.16,.13-.33,.24-.49,.35-.77,.83-1.91,1.3-3.12,1.16"/>
          <path class="p" d="M22.1,11.64c2.24-.72,4.74-.37,6.46,.72l-7.16-.45c.22-.1,.45-.19,.7-.27Z"/>
          <path class="i" d="M71.67,50.7c-.85,.1-1.69-.13-2.37-.64-.02-.01-.08-.07-.1-.08-.84-.69-1.3-1.73-1.2-2.86,.04-.42,.16-.84,.36-1.21,.52-.99,1.45-1.62,2.53-1.75,.85-.1,1.69,.13,2.38,.64,.02,.01,.08,.07,.1,.08,.66,.54,1.09,1.3,1.19,2.15,.05,.45,.42,.82,.86,.86,.65,.06,1.15-.48,1.08-1.09-.13-1.06-.57-2.04-1.26-2.82l.93-1.18c.29-.37,.31-.9,0-1.26-.42-.49-1.14-.45-1.52,.03l-.95,1.21c-1.21-.63-2.63-.77-4-.34-.7,.22-1.35,.58-1.89,1.07-1.32,1.19-1.93,2.86-1.73,4.56,.13,1.06,.57,2.04,1.26,2.82l-.93,1.18c-.29,.37-.31,.9,0,1.26,.42,.49,1.14,.45,1.52-.03l.95-1.21c.93,.48,1.98,.68,3.04,.55,.61-.07,1.02-.69,.8-1.31-.15-.42-.59-.69-1.04-.63Z"/>
        </g>
        <g>
          <rect class="g" height="35.35" rx="1" ry="1" transform="translate(23.1 -7.78) rotate(11.72)" width="87.3" x="5.83" y="91.01"/>
          <rect class="o" height="31.15" rx="1" ry="1" transform="translate(23.1 -7.78) rotate(11.72)" width="82.07" x="8.45" y="93.11"/>
          <path class="l" d="M84.8,108.35l-68.53-14.21c-.69-.14-1.13-.82-.99-1.51s.82-1.13,1.51-.99l68.53,14.21c.69,.14,1.13,.82,.99,1.51s-.82,1.13-1.51,.99Z"/>
          <path class="l" d="M83.62,114L15.57,99.89c-.69-.14-1.13-.82-.99-1.51s.82-1.13,1.51-.99l68.05,14.11c.69,.14,1.13,.82,.99,1.51s-.82,1.13-1.51,.99Z"/>
          <path class="l" d="M51.78,120.35c2.46-1.17,5.02-2.06,7.67-2.66l-1.29-1.49-1.16,2.95c-.3,.77,.16,1.54,1.02,1.55,1.5,0,2.98-.25,4.43-.63,.72-.19,1.42-.41,2.12-.64,.43-.14,1.6-.67,1.88-.61l-.67-.46c.02-.38-.03-.36-.16,.07l-.29,.67c-.13,.31-.29,.62-.4,.93-.21,.6-.22,1.22,.16,1.76,.9,1.27,2.45,.85,3.59,.21l-1.63-1.11c-.08,1.07-.09,2.32,.76,3.12,.39,.37,.89,.55,1.42,.59,.47,.04,1.39-.36,1.75-.08,.17,.13,.29,.58,.44,.77,.17,.21,.38,.4,.62,.54,.6,.35,1.31,.44,1.99,.42,1.44-.05,2.97-.49,4.34-.93s2.72-1.03,4-1.73c1.15-.62,2.8-1.41,3.42-2.63,.53-1.05,0-2.63-1.31-2.71-.66-.04-1.24,.59-1.7,1-.58,.51-1.11,1.06-1.59,1.66-1.51,1.9-4.07,6.68-.17,7.65,1.33,.33,1.76-1.76,.43-2.08-1.19-.3,.43-2.85,.76-3.36,.73-1.14,1.7-2.11,2.78-2.92l-1.07,.06c-.38-.14-1.49,.85-1.94,1.12-.74,.44-1.5,.83-2.29,1.18-1.54,.67-3.17,1.18-4.83,1.46-.82,.13-1.52,.32-1.99-.46-.35-.57-.68-1.04-1.38-1.21-.65-.15-1.24,.2-1.86,.14s-.53-.57-.48-1.15c.07-.92-.77-1.59-1.63-1.11-.17,.13-.35,.21-.55,.25-.23,0-.24,.09-.03,.26,.16-.15,.35-.8,.44-1,.19-.44,.45-.9,.5-1.38,.14-1.18-.84-1.83-1.92-1.6-1.3,.28-2.55,.85-3.83,1.21-1.39,.39-2.79,.63-4.24,.62l1.02,1.55,1.16-2.95c.35-.9-.35-1.71-1.29-1.49-2.65,.61-5.21,1.49-7.67,2.66-1.22,.58-.56,2.61,.68,2.02h0Z"/>
        </g>
      </g>
    </g>
  </g>
  <g id="c"/>
</svg>
